<?xml version="1.0" encoding="utf-8"?>
<svg version="1.1" xmlns:xlink="http://www.w3.org/1999/xlink" width="12px" height="12px" viewBox="800 321  12 12" xmlns="http://www.w3.org/2000/svg">
  <path d="M 806 321  C 809.36 321  812 323.64  812 327  C 812 330.36  809.36 333  806 333  C 802.64 333  800 330.36  800 327  C 800 323.64  802.64 321  806 321  Z " fill-rule="nonzero" fill="#ffffff" stroke="none" />
  <path d="M 806 321.5  C 809.08 321.5  811.5 323.92  811.5 327  C 811.5 330.08  809.08 332.5  806 332.5  C 802.92 332.5  800.5 330.08  800.5 327  C 800.5 323.92  802.92 321.5  806 321.5  Z " stroke-width="1" stroke="#7f91ef" fill="none" />
  <path d="M 806 330  C 804.32 330  803 328.68  803 327  C 803 325.32  804.32 324  806 324  C 807.68 324  809 325.32  809 327  C 809 328.68  807.68 330  806 330  " fill-rule="nonzero" fill="#7f91ef" stroke="none" />
</svg>