<?xml version="1.0" encoding="utf-8"?>
<svg version="1.1" xmlns:xlink="http://www.w3.org/1999/xlink" width="12px" height="12px" viewBox="721 357  12 12" xmlns="http://www.w3.org/2000/svg">
  <path d="M 727 357  C 730.36 357  733 359.64  733 363  C 733 366.36  730.36 369  727 369  C 723.64 369  721 366.36  721 363  C 721 359.64  723.64 357  727 357  Z " fill-rule="nonzero" fill="#f0f0f0" stroke="none" />
  <path d="M 727 357.5  C 730.08 357.5  732.5 359.92  732.5 363  C 732.5 366.08  730.08 368.5  727 368.5  C 723.92 368.5  721.5 366.08  721.5 363  C 721.5 359.92  723.92 357.5  727 357.5  Z " stroke-width="1" stroke="#7f91ef" fill="none" />
  <path d="M 727 366  C 725.32 366  724 364.68  724 363  C 724 361.32  725.32 360  727 360  C 728.68 360  730 361.32  730 363  C 730 364.68  728.68 366  727 366  " fill-rule="nonzero" fill="#7f91ef" stroke="none" />
</svg>