<?xml version="1.0" encoding="utf-8"?>
<svg version="1.1" xmlns:xlink="http://www.w3.org/1999/xlink" width="12px" height="12px" viewBox="721 396  12 12" xmlns="http://www.w3.org/2000/svg">
  <path d="M 727 396  C 730.36 396  733 398.64  733 402  C 733 405.36  730.36 408  727 408  C 723.64 408  721 405.36  721 402  C 721 398.64  723.64 396  727 396  Z " fill-rule="nonzero" fill="#f0f0f0" stroke="none" />
  <path d="M 727 396.5  C 730.08 396.5  732.5 398.92  732.5 402  C 732.5 405.08  730.08 407.5  727 407.5  C 723.92 407.5  721.5 405.08  721.5 402  C 721.5 398.92  723.92 396.5  727 396.5  Z " stroke-width="1" stroke="#7f91ef" fill="none" />
  <path d="M 727 405  C 725.32 405  724 403.68  724 402  C 724 400.32  725.32 399  727 399  C 728.68 399  730 400.32  730 402  C 730 403.68  728.68 405  727 405  " fill-rule="nonzero" fill="#7f91ef" stroke="none" />
</svg>