<?xml version="1.0" encoding="utf-8"?>
<svg version="1.1" xmlns:xlink="http://www.w3.org/1999/xlink" width="12px" height="12px" viewBox="800 396  12 12" xmlns="http://www.w3.org/2000/svg">
  <path d="M 806 396  C 809.36 396  812 398.64  812 402  C 812 405.36  809.36 408  806 408  C 802.64 408  800 405.36  800 402  C 800 398.64  802.64 396  806 396  Z " fill-rule="nonzero" fill="#f0f0f0" stroke="none" />
  <path d="M 806 396.5  C 809.08 396.5  811.5 398.92  811.5 402  C 811.5 405.08  809.08 407.5  806 407.5  C 802.92 407.5  800.5 405.08  800.5 402  C 800.5 398.92  802.92 396.5  806 396.5  Z " stroke-width="1" stroke="#7f91ef" fill="none" />
  <path d="M 806 405  C 804.32 405  803 403.68  803 402  C 803 400.32  804.32 399  806 399  C 807.68 399  809 400.32  809 402  C 809 403.68  807.68 405  806 405  " fill-rule="nonzero" fill="#7f91ef" stroke="none" />
</svg>