<?xml version="1.0" encoding="utf-8"?>
<svg version="1.1" xmlns:xlink="http://www.w3.org/1999/xlink" width="12px" height="12px" viewBox="721 431  12 12" xmlns="http://www.w3.org/2000/svg">
  <path d="M 727 431  C 730.36 431  733 433.64  733 437  C 733 440.36  730.36 443  727 443  C 723.64 443  721 440.36  721 437  C 721 433.64  723.64 431  727 431  Z " fill-rule="nonzero" fill="#f0f0f0" stroke="none" />
  <path d="M 727 431.5  C 730.08 431.5  732.5 433.92  732.5 437  C 732.5 440.08  730.08 442.5  727 442.5  C 723.92 442.5  721.5 440.08  721.5 437  C 721.5 433.92  723.92 431.5  727 431.5  Z " stroke-width="1" stroke="#7f91ef" fill="none" />
  <path d="M 727 440  C 725.32 440  724 438.68  724 437  C 724 435.32  725.32 434  727 434  C 728.68 434  730 435.32  730 437  C 730 438.68  728.68 440  727 440  " fill-rule="nonzero" fill="#7f91ef" stroke="none" />
</svg>