<?xml version="1.0" encoding="utf-8"?>
<svg version="1.1" xmlns:xlink="http://www.w3.org/1999/xlink" width="12px" height="12px" viewBox="800 431  12 12" xmlns="http://www.w3.org/2000/svg">
  <path d="M 806 431  C 809.36 431  812 433.64  812 437  C 812 440.36  809.36 443  806 443  C 802.64 443  800 440.36  800 437  C 800 433.64  802.64 431  806 431  Z " fill-rule="nonzero" fill="#f0f0f0" stroke="none" />
  <path d="M 806 431.5  C 809.08 431.5  811.5 433.92  811.5 437  C 811.5 440.08  809.08 442.5  806 442.5  C 802.92 442.5  800.5 440.08  800.5 437  C 800.5 433.92  802.92 431.5  806 431.5  Z " stroke-width="1" stroke="#7f91ef" fill="none" />
  <path d="M 806 440  C 804.32 440  803 438.68  803 437  C 803 435.32  804.32 434  806 434  C 807.68 434  809 435.32  809 437  C 809 438.68  807.68 440  806 440  " fill-rule="nonzero" fill="#7f91ef" stroke="none" />
</svg>