<?xml version="1.0" encoding="utf-8"?>
<svg version="1.1" xmlns:xlink="http://www.w3.org/1999/xlink" width="12px" height="12px" viewBox="721 466  12 12" xmlns="http://www.w3.org/2000/svg">
  <path d="M 727 466  C 730.36 466  733 468.64  733 472  C 733 475.36  730.36 478  727 478  C 723.64 478  721 475.36  721 472  C 721 468.64  723.64 466  727 466  Z " fill-rule="nonzero" fill="#f0f0f0" stroke="none" />
  <path d="M 727 466.5  C 730.08 466.5  732.5 468.92  732.5 472  C 732.5 475.08  730.08 477.5  727 477.5  C 723.92 477.5  721.5 475.08  721.5 472  C 721.5 468.92  723.92 466.5  727 466.5  Z " stroke-width="1" stroke="#7f91ef" fill="none" />
  <path d="M 727 475  C 725.32 475  724 473.68  724 472  C 724 470.32  725.32 469  727 469  C 728.68 469  730 470.32  730 472  C 730 473.68  728.68 475  727 475  " fill-rule="nonzero" fill="#7f91ef" stroke="none" />
</svg>