<?xml version="1.0" encoding="utf-8"?>
<svg version="1.1" xmlns:xlink="http://www.w3.org/1999/xlink" width="12px" height="12px" viewBox="779 466  12 12" xmlns="http://www.w3.org/2000/svg">
  <path d="M 785 466  C 788.36 466  791 468.64  791 472  C 791 475.36  788.36 478  785 478  C 781.64 478  779 475.36  779 472  C 779 468.64  781.64 466  785 466  Z " fill-rule="nonzero" fill="#f0f0f0" stroke="none" />
  <path d="M 785 466.5  C 788.08 466.5  790.5 468.92  790.5 472  C 790.5 475.08  788.08 477.5  785 477.5  C 781.92 477.5  779.5 475.08  779.5 472  C 779.5 468.92  781.92 466.5  785 466.5  Z " stroke-width="1" stroke="#7f91ef" fill="none" />
  <path d="M 785 475  C 783.32 475  782 473.68  782 472  C 782 470.32  783.32 469  785 469  C 786.68 469  788 470.32  788 472  C 788 473.68  786.68 475  785 475  " fill-rule="nonzero" fill="#7f91ef" stroke="none" />
</svg>