<?xml version="1.0" encoding="utf-8"?>
<svg version="1.1" xmlns:xlink="http://www.w3.org/1999/xlink" width="12px" height="12px" viewBox="885 466  12 12" xmlns="http://www.w3.org/2000/svg">
  <path d="M 891 466  C 894.36 466  897 468.64  897 472  C 897 475.36  894.36 478  891 478  C 887.64 478  885 475.36  885 472  C 885 468.64  887.64 466  891 466  Z " fill-rule="nonzero" fill="#f0f0f0" stroke="none" />
  <path d="M 891 466.5  C 894.08 466.5  896.5 468.92  896.5 472  C 896.5 475.08  894.08 477.5  891 477.5  C 887.92 477.5  885.5 475.08  885.5 472  C 885.5 468.92  887.92 466.5  891 466.5  Z " stroke-width="1" stroke="#7f91ef" fill="none" />
  <path d="M 891 475  C 889.32 475  888 473.68  888 472  C 888 470.32  889.32 469  891 469  C 892.68 469  894 470.32  894 472  C 894 473.68  892.68 475  891 475  " fill-rule="nonzero" fill="#7f91ef" stroke="none" />
</svg>