<?xml version="1.0" encoding="utf-8"?>
<svg version="1.1" xmlns:xlink="http://www.w3.org/1999/xlink" width="15px" height="16px" xmlns="http://www.w3.org/2000/svg">
  <g transform="matrix(1 0 0 1 -1161 -295 )">
    <path d="M 14.619140625 0.71875  C 14.873046875 0.8368055555555267  15 1.0416666666666667  15 1.3333333333333333  L 15 6  C 15 6.180555555555527  14.938151041666694 6.336805555555527  14.814453125 6.46875  C 14.690755208333307 6.600694444444473  14.544270833333307 6.666666666666667  14.375 6.666666666666667  L 10 6.666666666666667  C 9.7265625 6.666666666666667  9.534505208333307 6.527777777777807  9.423828125 6.25  C 9.313151041666694 5.979166666666667  9.358723958333307 5.739583333333333  9.560546875 5.53125  L 10.908203125 4.09375  C 9.944661458333307 3.14236111111114  8.80859375 2.6666666666666665  7.5 2.6666666666666665  C 6.8229166666666945 2.6666666666666665  6.1767578125 2.8072916666666665  5.5615234375 3.0885416666666665  C 4.9462890625 3.3697916666666665  4.4140625 3.75  3.9648437500000004 4.229166666666667  C 3.515625 4.708333333333333  3.1591796875 5.276041666666667  2.8955078125 5.932291666666667  C 2.6318359375 6.588541666666667  2.5 7.277777777777807  2.5 8  C 2.5 8.722222222222193  2.6318359375 9.411458333333334  2.8955078125 10.067708333333334  C 3.1591796875 10.723958333333334  3.515625 11.291666666666666  3.9648437500000004 11.770833333333334  C 4.4140625 12.25  4.9462890625 12.630208333333334  5.5615234375 12.911458333333334  C 6.1767578125 13.192708333333334  6.8229166666666945 13.333333333333334  7.5 13.333333333333334  C 8.274739583333307 13.333333333333334  9.007161458333307 13.152777777777807  9.697265625 12.791666666666666  C 10.387369791666693 12.430555555555527  10.970052083333307 11.92013888888886  11.4453125 11.260416666666666  C 11.490885416666693 11.190972222222193  11.565755208333307 11.149305555555527  11.669921875 11.135416666666666  C 11.767578125 11.135416666666666  11.848958333333307 11.166666666666666  11.9140625 11.229166666666666  L 13.251953125 12.666666666666666  C 13.310546875 12.722222222222193  13.341471354166694 12.793402777777807  13.3447265625 12.880208333333334  C 13.347981770833306 12.96701388888886  13.323567708333307 13.04513888888886  13.271484375 13.114583333333334  C 12.561848958333307 14.03125  11.702473958333307 14.741319444444473  10.693359375 15.244791666666666  C 9.684244791666693 15.74826388888886  8.619791666666693 16  7.5 16  C 6.484375 16  5.514322916666694 15.788194444444473  4.58984375 15.364583333333334  C 3.6653645833333064 14.940972222222193  2.8678385416666936 14.371527777777807  2.197265625 13.65625  C 1.5266927083333064 12.940972222222193  0.9928385416666936 12.090277777777807  0.595703125 11.104166666666666  C 0.19856770833330628 10.118055555555527  0 9.083333333333334  0 8  C 0 6.916666666666667  0.19856770833330628 5.881944444444473  0.595703125 4.895833333333333  C 0.9928385416666936 3.9097222222221935  1.5266927083333064 3.0590277777778065  2.197265625 2.34375  C 2.8678385416666936 1.6284722222221935  3.6653645833333064 1.0590277777778065  4.58984375 0.6354166666666666  C 5.514322916666694 0.2118055555555267  6.484375 0  7.5 0  C 8.45703125 0  9.383138020833307 0.19270833333333334  10.2783203125 0.578125  C 11.173502604166694 0.9635416666666666  11.969401041666693 1.5069444444444733  12.666015625 2.2083333333333335  L 13.935546875 0.8645833333333334  C 14.124348958333306 0.6493055555555267  14.352213541666694 0.6006944444444733  14.619140625 0.71875  Z " fill-rule="nonzero" fill="#666666" stroke="none" transform="matrix(1 0 0 1 1161 295 )" />
  </g>
</svg>