<?xml version="1.0" encoding="utf-8"?>
<svg version="1.1" xmlns:xlink="http://www.w3.org/1999/xlink" width="18px" height="23px" xmlns="http://www.w3.org/2000/svg">
  <g transform="matrix(1 0 0 1 -9 -5 )">
    <path d="M 16.705722477272726 1  C 17.306526298295456 0.7924355808189657  17.791578946022728 1.2639564493534483  17.791578946022728 1.8450090678879307  C 17.791578946022728 2.4263293665604317  17.30542444546847 2.8975825797413792  16.705722477272726 2.8975825797413792  C 16.705722477272726 2.8975825797413792  16.705722477272726 2.8975825797413792  16.705722477272726 3  L 1.1110047954545452 3  C 0.5113679037919511 2.897493386473021  0.025314950160516887 2.426266303945837  0.025314950160516887 1.8450090802801729  C 0.025314950160516887 1.263751856614508  0.5113679037919511 0.7925247740873239  1.1110047954545452 1  L 16.705722477272726 1  Z M 10 6.811339386853447  C 10.081722477272727 6.2300190978598895  9.595567992301655 5.758765888688093  8.995866034090911 5.758765875  C 8.396164065895167 5.758765875  7.91000956534091 6.230019088180946  8 6.811339386853447  L 8 21.928058084051724  C 7.9100095568181805 21.928111922793054  7.910009552556818 21.928165761534885  7.910009552556818 21.92821960027685  C 7.910009552556818 22.50953989894935  8.396164053111075 22.980793112130296  8.995866021306815 22.980793112130296  C 9.59556798950256 22.980793112130296  10.081722490056817 22.50953989894935  10.081722490056817 21.92821960027685  C 10.081722490056817 21.928165761534885  10.081722485795453 21.928111922793054  10 21.928058084051724  L 10 6.811339386853447  Z M 9.764784690340909 4.9826932823275865  L 9.7661626875 4.9826932823275865  C 9.341741633522728 4.571281302801724  8.678928247159089 4.547237752155173  8.284822977272727 4.929263167025862  L 0.28834450568181774 12.681974585129309  C -0.10576076420454651 13.064000000000002  -0.08233491477272749 13.70649726724138  0.3420861136363636 14.11790924676724  C 0.766507167613635 14.527985466594828  1.4293205539772722 14.552029017241379  1.8234258494318172 14.170003627155172  L 9.819904295454545 6.417292184267241  C 10.214009565340909 6.036602529094828  10.190583715909092 5.392769502155172  9.764784690340909 4.9826932823275865  Z M 9.706909090909088 4.9292631670258595  C 9.312803821022726 4.54723775215517  8.648612437499997 4.571281327586204  8.225569380681817 4.9826932823275865  C 7.801148326704543 5.392769502155172  7.776344505681819 6.036602529094828  8.170449749999998 6.417292184267241  L 16.168306218749997 14.170003627155172  C 16.56241148863636 14.552029042025863  17.225224874999995 14.527985466594828  17.649645928977268 14.116573511853446  C 18.072688985795452 13.70649729202586  18.097492806818178 13.063999999999998  17.704765559659087 12.681974585129307  L 9.706909090909088 4.9292631670258595  Z " fill-rule="nonzero" fill="#e4525b" stroke="none" transform="matrix(1 0 0 1 9 5 )" />
  </g>
</svg>