<?xml version="1.0" encoding="utf-8"?>
<svg version="1.1" xmlns:xlink="http://www.w3.org/1999/xlink" width="21px" height="21px" xmlns="http://www.w3.org/2000/svg">
  <g transform="matrix(1 0 0 1 -846 -207 )">
    <path d="M 21 5.82375  C 21 4.228125  19.8646875 2.9299218750000002  18.46892578125 2.9285156249999997  L 17.957666015625 2.9264062499999994  L 17.95541015625 3.67640625  L 17.95541015625 2.9264062499999994  C 16.397841796875 2.9264062499999994  14.986904296875002 1.8058593749999996  14.444267578125 0.13804687499999968  L 14.440166015625 0.13968749999999952  L 14.440166015625 0.11648437499999965  L 6.56373046875 0.11648437499999965  L 6.56373046875 0.13710937499999953  L 6.546708984375 0.12984374999999948  C 6.004072265625001 1.7976562499999997  4.593134765625001 2.9182031250000002  3.03556640625 2.9182031250000002  L 3.03556640625 3.668203125  L 3.0240820312500003 2.9182031250000002  L 2.5216406250000003 2.92828125  C 1.130185546875 2.9357812499999993  0 4.231640625000001  0 5.82375  L 0 18.039843750000003  C 0 19.636171875  1.136337890625 20.935078125  2.533330078125 21  L 18.466669921875 21  C 19.86345703125 20.935078125  21 19.63640625  21 18.039843750000003  L 21 5.82375  Z M 19.6875 5.82375  L 19.6875 18.039843750000003  C 19.6875 18.809062500000003  19.13994140625 19.435078125  18.466669921875 19.435078125  L 2.533330078125 19.435078125  C 1.86005859375 19.434843750000002  1.3125 18.8090625  1.3125 18.039843750000003  L 1.3125 5.82375  C 1.3125 5.054531250000001  1.86005859375 4.428515625  2.533330078125 4.428515625  L 2.533330078125 3.6785156250000006  L 2.544814453125 4.428515625  L 3.047255859375 4.4184375000000005  C 4.09541015625 4.415859374999999  5.10029296875 4.05  5.953623046875 3.36  C 6.53255859375 2.8919531250000006  7.012646484375 2.2996875  7.371328125 1.6169531250000002  L 13.615546875000001 1.6169531250000002  C 13.974843750000002 2.3029687500000002  14.456367187500001 2.898046875  15.037558593750003 3.36796875  C 15.893349609375003 4.0600781249999995  16.901513671875 4.4259375  17.953154296875002 4.426640625  L 18.4644140625 4.428515625  L 18.466669921875 3.6785156250000006  L 18.466669921875 4.428515625  C 19.139736328125 4.428515625  19.6875 5.054296875  19.6875 5.82375  Z M 14.838632812499998 11.6503125  C 14.838632812499998 8.905078124999996  12.884443359375 6.671249999999999  10.482158203125 6.67125  C 8.079873046875 6.67125  6.12568359375 8.90484375  6.12568359375 11.650078124999999  C 6.12568359375 14.395312499999996  8.080078125 16.629140624999998  10.482158203125 16.629140624999998  C 12.884443359375 16.629140624999998  14.838632812499998 14.395546875  14.838632812499998 11.6503125  Z M 13.526132812499998 11.6503125  C 13.526132812499998 13.5684375  12.160722656249998 15.129140625  10.482158203125 15.129140625  C 8.80359375 15.129140625  7.43818359375 13.5684375  7.43818359375 11.6503125  C 7.43818359375 9.732187499999998  8.803798828125 8.171484374999997  10.482158203125 8.171484374999997  C 12.160517578125 8.171484374999997  13.526132812499998 9.732187499999998  13.526132812499998 11.6503125  Z " fill-rule="nonzero" fill="#7f91ef" stroke="none" transform="matrix(1 0 0 1 846 207 )" />
  </g>
</svg>