<?xml version="1.0" encoding="utf-8"?>
<svg version="1.1" xmlns:xlink="http://www.w3.org/1999/xlink" width="485px" height="232px" xmlns="http://www.w3.org/2000/svg">
  <defs>
    <mask fill="white" id="clip1378">
      <path d="M 0 222  L 0 10  C 0 4.400000000000006  4.399999999999977 0  10 0  L 472.9565217391305 0  L 485 0  L 485 10  L 485 226.9203036053131  L 483.43833017077804 230.52561669829225  L 478.5047438330171 232  L 10 232  C 4.399999999999977 232  0 227.60000000000002  0 222  Z " fill-rule="evenodd" />
    </mask>
  </defs>
  <g transform="matrix(1 0 0 1 -405 -198 )">
    <path d="M 0 222  L 0 10  C 0 4.400000000000006  4.399999999999977 0  10 0  L 472.9565217391305 0  L 485 0  L 485 10  L 485 226.9203036053131  L 483.43833017077804 230.52561669829225  L 478.5047438330171 232  L 10 232  C 4.399999999999977 232  0 227.60000000000002  0 222  Z " fill-rule="nonzero" fill="#ffffff" stroke="none" transform="matrix(1 0 0 1 405 198 )" />
    <path d="M 0 222  L 0 10  C 0 4.400000000000006  4.399999999999977 0  10 0  L 472.9565217391305 0  L 485 0  L 485 10  L 485 226.9203036053131  L 483.43833017077804 230.52561669829225  L 478.5047438330171 232  L 10 232  C 4.399999999999977 232  0 227.60000000000002  0 222  Z " stroke-width="2" stroke="#0066ff" fill="none" transform="matrix(1 0 0 1 405 198 )" mask="url(#clip1378)" />
  </g>
</svg>