<?xml version="1.0" encoding="utf-8"?>
<svg version="1.1" xmlns:xlink="http://www.w3.org/1999/xlink" width="18px" height="21px" xmlns="http://www.w3.org/2000/svg">
  <g transform="matrix(1 0 0 1 -815 -207 )">
    <path d="M 13.7999999640625 3.324999993164062  C 13.899999971614584 3.5874999931640628  13.999999955729168 3.9375  13.999999955729168 4.374999993164063  L 11.99999996875 4.374999993164063  C 11.99999996875 4.112499993164063  11.99999996875 3.9375  11.899999961197919 3.762499986328125  C 11.599999961979167 2.5374999931640625  10.399999965104167 1.7499999931640624  8.9999999765625 1.7499999931640624  C 7.5999999880208335 1.7499999931640624  6.399999991145833 2.5374999931640625  6.099999991927083 3.675  C 5.999999984375 3.9375  5.999999984375 4.112499993164063  5.999999984375 4.374999993164063  L 3.999999997395834 4.374999993164063  C 3.999999997395834 3.9375  4.100000004947916 3.5874999931640628  4.199999989062501 3.237499986328125  C 4.6999999799479175 1.3125  6.699999990364583 0  8.9999999765625 0  C 11.299999962760417 0  13.299999973177085 1.3125  13.7999999640625 3.324999993164062  Z M 13.999999955729168 9.625000013671873  C 13.999999955729168 12.075  11.799999977083333 14.000000006835936  8.9999999765625 14.000000006835936  C 6.199999976041665 14.000000006835936  3.9999999973958325 12.075  3.9999999973958325 9.625000013671873  L 5.999999984374998 9.625000013671873  C 5.999999984374998 11.112500006835935  7.299999988802082 12.250000013671873  8.9999999765625 12.250000013671873  C 10.699999964322917 12.250000013671873  11.99999996875 11.112500006835935  11.99999996875 9.625000013671873  L 13.999999955729168 9.625000013671873  Z M 6.099999991927084 3.674999979492188  C 5.999999984375 3.9375  5.999999984375 4.112499993164063  5.999999984375 4.374999993164063  L 3.999999997395834 4.374999993164063  C 3.999999997395834 3.9375  4.100000004947916 3.5874999931640628  4.199999989062501 3.237499986328125  L 6.099999991927084 3.674999979492188  Z M 18 9.624999993164062  C 17.999999953125 14.000000006835936  13.999999955729168 17.499999993164064  8.9999999765625 17.499999993164064  C 3.9999999973958325 17.499999993164064  0 13.999999986328127  0 9.624999993164064  C 0 9.099999993164063  0.40000000677083325 8.749999986328126  1.000000005208333 8.749999986328126  C 1.600000003645833 8.749999986328126  2.000000010416666 9.099999993164063  2.000000010416666 9.624999993164064  C 2.000000010416666 13.037499993164063  5.100000010156251 15.75  9 15.75  C 12.89999998984375 15.75  15.999999989583335 13.037499993164063  15.999999989583335 9.624999993164062  C 15.999999989583335 9.099999993164062  16.39999999635417 8.749999986328124  16.99999999479167 8.749999986328124  C 17.599999993229165 8.749999986328124  18 9.099999993164062  18 9.624999993164062  Z M 13.999999955729166 20.124999993164064  C 13.999999955729166 20.649999993164062  13.599999972395832 21  12.999999973958333 21  L 4.999999979166666 21  C 4.399999980729166 21  3.9999999739583325 20.649999993164062  3.9999999739583325 20.124999993164064  C 3.9999999739583325 19.599999993164065  4.399999980729166 19.249999986328127  4.999999979166666 19.249999986328127  L 12.999999950520833 19.249999986328127  C 13.599999948958333 19.249999986328127  13.999999955729166 19.599999993164065  13.999999955729166 20.124999993164064  Z M 9.999999981770832 20.124999993164064  C 9.999999981770832 20.649999993164062  9.599999975 21  8.9999999765625 21  C 8.399999978124999 21  7.999999971354167 20.649999993164062  7.999999971354167 20.124999993164064  L 7.999999971354167 16.624999986328127  C 7.999999971354167 16.099999986328125  8.399999978124999 15.74999997949219  8.9999999765625 15.74999997949219  C 9.599999975 15.74999997949219  9.999999981770832 16.09999998632813  9.999999981770832 16.624999986328127  L 9.999999981770832 20.124999993164064  Z M 6.000000007812501 9.624999993164064  C 5.999999984375 10.149999993164062  5.599999977604167 10.5  4.999999979166666 10.5  C 4.399999980729166 10.5  3.9999999739583325 10.149999993164062  3.9999999739583325 9.624999993164062  L 3.999999997395834 4.374999993164063  C 3.999999997395834 3.849999993164063  4.4000000041666665 3.4999999863281253  5.0000000026041675 3.4999999863281253  C 5.600000001041668 3.4999999863281253  6.000000007812501 3.849999993164063  6.000000007812501 4.374999993164063  L 6.000000007812501 9.624999993164064  Z M 13.999999979166665 9.624999993164064  C 13.999999955729168 10.149999993164062  13.599999972395832 10.5  12.999999973958333 10.5  C 12.399999975520831 10.5  11.99999996875 10.149999993164062  11.99999996875 9.624999993164062  L 11.99999996875 4.374999993164063  C 11.99999996875 3.849999993164063  12.399999975520835 3.4999999863281253  12.999999973958333 3.4999999863281253  C 13.59999997239583 3.4999999863281253  13.999999979166665 3.849999993164063  13.999999979166665 4.374999993164063  L 13.999999979166665 9.624999993164064  Z " fill-rule="nonzero" fill="#7f91ef" stroke="none" transform="matrix(1 0 0 1 815 207 )" />
  </g>
</svg>